<svg width="30" height="29" viewBox="0 0 30 29" fill="none" xmlns="http://www.w3.org/2000/svg">
<path d="M15.0211 17.3992C14.7249 17.3992 14.4353 17.4843 14.1889 17.6436C13.9426 17.8029 13.7506 18.0294 13.6372 18.2943C13.5239 18.5592 13.4942 18.8508 13.552 19.132C13.6098 19.4133 13.7525 19.6716 13.9619 19.8744C14.1714 20.0772 14.4383 20.2153 14.7289 20.2712C15.0194 20.3272 15.3206 20.2985 15.5943 20.1887C15.868 20.079 16.102 19.8931 16.2666 19.6547C16.4311 19.4163 16.519 19.1359 16.519 18.8492C16.519 18.4646 16.3612 18.0958 16.0803 17.8239C15.7994 17.552 15.4184 17.3992 15.0211 17.3992ZM15.0211 0C13.0541 0 11.1063 0.375037 9.28894 1.1037C7.47161 1.83236 5.82035 2.90037 4.42944 4.24676C1.62035 6.96592 0.0422201 10.6539 0.0422201 14.4994C0.0291253 17.8475 1.22674 21.0944 3.42745 23.6775L0.431671 26.5773C0.223828 26.7812 0.0830317 27.0401 0.0270494 27.3214C-0.0289329 27.6027 0.00240695 27.8937 0.117114 28.1578C0.241526 28.4186 0.443211 28.6379 0.696568 28.7876C0.949925 28.9373 1.24353 29.0108 1.54011 28.9987H15.0211C18.9938 28.9987 22.8037 27.4711 25.6128 24.752C28.4219 22.0328 30 18.3448 30 14.4994C30 10.6539 28.4219 6.96592 25.6128 4.24676C22.8037 1.52761 18.9938 0 15.0211 0ZM15.0211 26.0988H5.15002L6.54306 24.7504C6.68459 24.6161 6.79719 24.456 6.87432 24.2793C6.95146 24.1026 6.9916 23.9128 6.99242 23.721C6.9868 23.3385 6.82528 22.9737 6.54306 22.706C4.5817 20.8095 3.36031 18.3135 3.08697 15.6431C2.81363 12.9726 3.50525 10.2931 5.04401 8.06095C6.58277 5.8288 8.87346 4.18213 11.5258 3.40151C14.1782 2.62089 17.0281 2.7546 19.59 3.77986C22.1519 4.80512 24.2674 6.6585 25.5759 9.02424C26.8844 11.39 27.3051 14.1217 26.7662 16.754C26.2274 19.3863 24.7623 21.7564 22.6207 23.4603C20.4791 25.1643 17.7933 26.0967 15.0211 26.0988ZM15.0211 8.69961C14.6238 8.69961 14.2429 8.85238 13.9619 9.12429C13.681 9.39621 13.5232 9.765 13.5232 10.1496V14.4994C13.5232 14.8839 13.681 15.2527 13.9619 15.5246C14.2429 15.7965 14.6238 15.9493 15.0211 15.9493C15.4184 15.9493 15.7994 15.7965 16.0803 15.5246C16.3612 15.2527 16.519 14.8839 16.519 14.4994V10.1496C16.519 9.765 16.3612 9.39621 16.0803 9.12429C15.7994 8.85238 15.4184 8.69961 15.0211 8.69961Z" fill="#ADA796"/>
</svg>
