<svg width="16" height="25" viewBox="0 0 16 25" fill="none" xmlns="http://www.w3.org/2000/svg">
<path d="M0.786225 13.6234L10.8966 23.4021C11.1182 23.6182 11.3825 23.7905 11.6743 23.9088C11.9661 24.0271 12.2795 24.0892 12.5965 24.0916C12.9135 24.0939 13.2278 24.0363 13.5212 23.9223C13.8147 23.8082 14.0815 23.6399 14.3063 23.427C14.7567 23.0015 15.012 22.4232 15.0164 21.8186C15.0208 21.2139 14.774 20.632 14.3299 20.1999L4.5877 12.0261L14.4484 3.99557C14.8988 3.57002 15.154 2.99176 15.1585 2.38711C15.1629 1.78246 14.9161 1.20053 14.472 0.768438C14.2492 0.554674 13.9843 0.384907 13.6926 0.26887C13.4008 0.152832 13.088 0.0928078 12.772 0.0922385C12.456 0.0881865 12.1423 0.14363 11.8489 0.255389C11.5555 0.367148 11.2881 0.533023 11.0622 0.743507L0.809988 10.3733C0.583367 10.5845 0.402878 10.8363 0.278931 11.1143C0.154984 11.3923 0.0900312 11.691 0.087822 11.9932C0.0856128 12.2953 0.146191 12.5949 0.266059 12.8747C0.385928 13.1545 0.562715 13.4089 0.786225 13.6234Z" fill="black"/>
</svg>
