<svg width="67" height="63" viewBox="0 0 67 63" fill="none" xmlns="http://www.w3.org/2000/svg">
<rect x="1.5" y="1.5" width="64" height="60" rx="7.5" fill="white" stroke="black" stroke-width="3"/>
<path d="M34 29.0199C34.7911 29.0199 35.5645 28.7792 36.2223 28.3283C36.8801 27.8774 37.3928 27.2365 37.6955 26.4867C37.9983 25.7369 38.0775 24.9118 37.9231 24.1157C37.7688 23.3197 37.3878 22.5885 36.8284 22.0146C36.269 21.4407 35.5563 21.0499 34.7804 20.8916C34.0044 20.7332 33.2002 20.8145 32.4693 21.1251C31.7384 21.4357 31.1136 21.9617 30.6741 22.6365C30.2346 23.3113 30 24.1047 30 24.9163C30 26.0047 30.4214 27.0484 31.1716 27.818C31.9217 28.5876 32.9391 29.0199 34 29.0199ZM32.58 43.1978C32.7659 43.3901 32.9871 43.5428 33.2308 43.6469C33.4746 43.7511 33.736 43.8047 34 43.8047C34.264 43.8047 34.5254 43.7511 34.7692 43.6469C35.0129 43.5428 35.2341 43.3901 35.42 43.1978L43.6 34.7854C45.4999 32.8374 46.794 30.355 47.3185 27.6523C47.8431 24.9496 47.5746 22.148 46.547 19.6019C45.5193 17.0558 43.7788 14.8796 41.5454 13.3484C39.312 11.8173 36.6862 11 34 11C31.3138 11 28.688 11.8173 26.4546 13.3484C24.2212 14.8796 22.4807 17.0558 21.453 19.6019C20.4254 22.148 20.1569 24.9496 20.6815 27.6523C21.206 30.355 22.5001 32.8374 24.4 34.7854L32.58 43.1978ZM24.46 23.9725C24.5966 22.5096 25.05 21.0965 25.787 19.8363C26.5241 18.5761 27.5261 17.5007 28.72 16.6886C30.2884 15.6321 32.1237 15.0693 34 15.0693C35.8763 15.0693 37.7116 15.6321 39.28 16.6886C40.4659 17.498 41.4623 18.5668 42.1975 19.8184C42.9326 21.07 43.3883 22.4731 43.5317 23.9269C43.6752 25.3807 43.5028 26.8491 43.027 28.2264C42.5512 29.6037 41.7838 30.8557 40.78 31.8924L34 38.848L27.22 31.8924C26.215 30.8658 25.4459 29.6222 24.9684 28.2521C24.491 26.8821 24.3173 25.4201 24.46 23.9725V23.9725ZM48 47.8964H20C19.4696 47.8964 18.9609 48.1126 18.5858 48.4974C18.2107 48.8822 18 49.404 18 49.9482C18 50.4924 18.2107 51.0143 18.5858 51.399C18.9609 51.7838 19.4696 52 20 52H48C48.5304 52 49.0391 51.7838 49.4142 51.399C49.7893 51.0143 50 50.4924 50 49.9482C50 49.404 49.7893 48.8822 49.4142 48.4974C49.0391 48.1126 48.5304 47.8964 48 47.8964Z" fill="black"/>
</svg>
