<svg width="36" height="28" viewBox="0 0 36 28" fill="none" xmlns="http://www.w3.org/2000/svg">
<path d="M21.2579 12.4784L24.7721 13.6083C24.9629 13.6708 25.1628 13.6992 25.3603 13.692C25.5578 13.6847 25.7491 13.642 25.9232 13.5662L34.4716 9.8031C34.6462 9.72708 34.8001 9.6193 34.9243 9.48598C35.0485 9.35266 35.1406 9.19645 35.1953 9.02634C35.25 8.85624 35.2662 8.67561 35.243 8.49489C35.2197 8.31416 35.1575 8.13691 35.0599 7.97336L32.5484 3.72512C32.4522 3.56094 32.3225 3.41344 32.1665 3.29112C32.0106 3.16881 31.8316 3.0741 31.6399 3.01246C31.4482 2.95082 31.2476 2.92347 31.0496 2.93199C30.8516 2.94051 30.6602 2.98473 30.4864 3.0621L21.938 6.82517C21.5932 6.98678 21.3378 7.26519 21.2227 7.60464L20.2201 10.7229C20.1102 11.0647 20.1578 11.4416 20.3524 11.7708C20.547 12.1 20.8727 12.3546 21.2579 12.4784ZM23.953 9.07967L30.6349 6.13822L31.6727 7.89369L24.9908 10.8351L23.5387 10.3682L23.953 9.07967ZM31.8372 14.4583C31.452 14.3344 31.039 14.3514 30.689 14.5055C30.339 14.6596 30.0806 14.9382 29.9707 15.2799L27.0705 24.2998C26.9606 24.6415 26.7022 24.9201 26.3522 25.0742C26.0022 25.2282 25.5892 25.2452 25.204 25.1214L4.87408 18.5845C4.48894 18.4607 4.16324 18.2062 3.96861 17.877C3.77398 17.5478 3.72637 17.1708 3.83625 16.8291L7.81786 4.4461L13.9161 14.7811C14.2042 15.2757 14.5939 15.7202 15.0627 16.0887C15.5314 16.4572 16.0698 16.7425 16.6467 16.928C17.2235 17.1135 17.8273 17.1954 18.423 17.1692C19.0186 17.1429 19.5944 17.0089 20.1167 16.7749C20.4603 16.6196 20.7134 16.3437 20.8219 16.0064C20.9303 15.6691 20.8854 15.2973 20.6968 14.9709C20.601 14.8047 20.4708 14.6553 20.314 14.5313C20.1571 14.4074 19.9766 14.3116 19.7832 14.2494C19.5897 14.1872 19.3872 14.1599 19.1875 14.1691C18.9878 14.1784 18.7949 14.224 18.6202 14.3032C18.2729 14.452 17.8654 14.4669 17.4853 14.3447C17.1052 14.2225 16.7828 13.9729 16.5872 13.6495L10.4496 3.2876L17.1149 5.43075C17.5 5.55459 17.913 5.53759 18.263 5.38351C18.6131 5.22942 18.8715 4.95087 18.9813 4.60912C19.0912 4.26738 19.0436 3.89044 18.849 3.56122C18.6544 3.23201 18.3286 2.97749 17.9435 2.85365L10.6828 0.519059C9.52743 0.147556 8.2884 0.198542 7.23832 0.6608C6.18823 1.12306 5.4131 1.95872 5.08345 2.98396L0.940263 15.8695C0.61061 16.8947 0.753438 18.0255 1.33733 19.0132C1.92121 20.0008 2.89833 20.7644 4.05372 21.1359L24.3837 27.6727C25.5391 28.0442 26.7781 27.9933 27.8282 27.531C28.8783 27.0687 29.6534 26.2331 29.983 25.2078L32.8833 16.188C32.9932 15.8462 32.9456 15.4693 32.7509 15.1401C32.5563 14.8109 32.2306 14.5563 31.8455 14.4325L31.8372 14.4583Z" fill="white"/>
</svg>
