<svg width="23" height="21" viewBox="0 0 23 21" fill="none" xmlns="http://www.w3.org/2000/svg">
<path d="M13.796 9.96122H16.5782C16.7295 9.96206 16.8795 9.93416 17.0196 9.87912C17.1596 9.82407 17.287 9.74297 17.3945 9.64046L22.6599 4.57456C22.7677 4.47174 22.8532 4.3494 22.9116 4.21462C22.9699 4.07983 23 3.93526 23 3.78924C23 3.64322 22.9699 3.49865 22.9116 3.36386C22.8532 3.22908 22.7677 3.10674 22.6599 3.00392L19.8777 0.32718C19.7709 0.223507 19.6437 0.141221 19.5036 0.085066C19.3635 0.0289112 19.2132 0 19.0615 0C18.9097 0 18.7594 0.0289112 18.6193 0.085066C18.4792 0.141221 18.3521 0.223507 18.2452 0.32718L12.9797 5.39307C12.7697 5.60504 12.6506 5.88554 12.6463 6.1784V8.85513C12.6463 9.14849 12.7675 9.42982 12.9831 9.63726C13.1987 9.84469 13.4911 9.96122 13.796 9.96122ZM14.9457 6.64295L19.0615 2.68315L20.2111 3.78924L16.0953 7.74904H14.9457V6.64295ZM21.8437 8.85513C21.5388 8.85513 21.2463 8.97167 21.0307 9.1791C20.8151 9.38653 20.694 9.66787 20.694 9.96122V17.7039C20.694 17.9972 20.5729 18.2785 20.3573 18.486C20.1417 18.6934 19.8492 18.8099 19.5443 18.8099H3.449C3.14409 18.8099 2.85167 18.6934 2.63606 18.486C2.42046 18.2785 2.29933 17.9972 2.29933 17.7039V7.07433L9.05937 13.5892C9.3802 13.9019 9.76238 14.1502 10.1837 14.3196C10.6051 14.4891 11.0572 14.5763 11.5139 14.5763C11.9706 14.5763 12.4227 14.4891 12.8441 14.3196C13.2654 14.1502 13.6476 13.9019 13.9684 13.5892C14.1791 13.3824 14.2971 13.1045 14.2971 12.8149C14.2971 12.5254 14.1791 12.2474 13.9684 12.0407C13.8614 11.9353 13.7335 11.8516 13.5924 11.7945C13.4512 11.7373 13.2996 11.7079 13.1464 11.7079C12.9933 11.7079 12.8417 11.7373 12.7005 11.7945C12.5594 11.8516 12.4315 11.9353 12.3244 12.0407C12.1095 12.2433 11.8206 12.3569 11.5197 12.3569C11.2187 12.3569 10.9298 12.2433 10.7149 12.0407L3.92036 5.51474H9.19733C9.50224 5.51474 9.79467 5.39821 10.0103 5.19078C10.2259 4.98334 10.347 4.702 10.347 4.40865C10.347 4.1153 10.2259 3.83396 10.0103 3.62653C9.79467 3.4191 9.50224 3.30256 9.19733 3.30256H3.449C2.53427 3.30256 1.657 3.65216 1.01019 4.27446C0.363376 4.89676 0 5.74077 0 6.62083V17.6817C0 18.5618 0.363376 19.4058 1.01019 20.0281C1.657 20.6504 2.53427 21 3.449 21H19.5443C20.4591 21 21.3363 20.6504 21.9831 20.0281C22.63 19.4058 22.9933 18.5618 22.9933 17.6817V9.9391C22.9933 9.64575 22.8722 9.36441 22.6566 9.15698C22.441 8.94954 22.1486 8.83301 21.8437 8.83301V8.85513Z" fill="black"/>
</svg>
