<svg width="67" height="63" viewBox="0 0 67 63" fill="none" xmlns="http://www.w3.org/2000/svg">
<rect x="1.5" y="1.5" width="64" height="60" rx="7.5" fill="white" stroke="black" stroke-width="3"/>
<path d="M37.3932 30.6533H42.1109C42.3674 30.6547 42.6217 30.6108 42.8593 30.5243C43.0968 30.4378 43.3128 30.3104 43.4949 30.1493L52.4234 22.1886C52.6061 22.027 52.7511 21.8348 52.8501 21.623C52.949 21.4112 53 21.184 53 20.9545C53 20.7251 52.949 20.4979 52.8501 20.2861C52.7511 20.0743 52.6061 19.882 52.4234 19.7204L47.7057 15.5141C47.5245 15.3512 47.3089 15.2219 47.0713 15.1337C46.8338 15.0454 46.579 15 46.3216 15C46.0643 15 45.8095 15.0454 45.5719 15.1337C45.3344 15.2219 45.1188 15.3512 44.9375 15.5141L36.0091 23.4748C35.6529 23.8079 35.451 24.2487 35.4438 24.7089V28.9152C35.4438 29.3762 35.6492 29.8183 36.0148 30.1443C36.3804 30.4702 36.8762 30.6533 37.3932 30.6533ZM39.3427 25.4389L46.3216 19.2164L48.2711 20.9545L41.2921 27.1771H39.3427V25.4389ZM51.0393 28.9152C50.5222 28.9152 50.0264 29.0983 49.6608 29.4243C49.2952 29.7503 49.0898 30.1924 49.0898 30.6533V42.8203C49.0898 43.2813 48.8844 43.7234 48.5189 44.0494C48.1533 44.3754 47.6574 44.5585 47.1404 44.5585H19.8483C19.3313 44.5585 18.8354 44.3754 18.4698 44.0494C18.1043 43.7234 17.8989 43.2813 17.8989 42.8203V26.1168L29.3615 36.3545C29.9056 36.8458 30.5536 37.236 31.2681 37.5022C31.9825 37.7685 32.7492 37.9057 33.5236 37.9057C34.298 37.9057 35.0646 37.7685 35.7791 37.5022C36.4936 37.236 37.1416 36.8458 37.6856 36.3545C38.0428 36.0295 38.2429 35.5927 38.2429 35.1378C38.2429 34.6828 38.0428 34.246 37.6856 33.9211C37.5041 33.7555 37.2873 33.624 37.0479 33.5342C36.8085 33.4444 36.5515 33.3981 36.2918 33.3981C36.0321 33.3981 35.775 33.4444 35.5357 33.5342C35.2963 33.624 35.0795 33.7555 34.8979 33.9211C34.5335 34.2395 34.0436 34.4179 33.5333 34.4179C33.0231 34.4179 32.5331 34.2395 32.1687 33.9211L20.6476 23.666H29.5955C30.1125 23.666 30.6083 23.4829 30.9739 23.1569C31.3395 22.831 31.5449 22.3889 31.5449 21.9279C31.5449 21.4669 31.3395 21.0248 30.9739 20.6988C30.6083 20.3729 30.1125 20.1897 29.5955 20.1897H19.8483C18.2972 20.1897 16.8097 20.7391 15.7129 21.717C14.6162 22.6949 14 24.0212 14 25.4042V42.7856C14 44.1685 14.6162 45.4948 15.7129 46.4727C16.8097 47.4506 18.2972 48 19.8483 48H47.1404C48.6915 48 50.179 47.4506 51.2758 46.4727C52.3725 45.4948 52.9887 44.1685 52.9887 42.7856V30.6186C52.9887 30.1576 52.7833 29.7155 52.4177 29.3895C52.0521 29.0636 51.5563 28.8804 51.0393 28.8804V28.9152Z" fill="black"/>
</svg>
