<svg width="8" height="13" viewBox="0 0 8 13" fill="none" xmlns="http://www.w3.org/2000/svg">
<path d="M7.62117 5.62335L2.19101 0.366722C2.07195 0.25052 1.93031 0.158288 1.77424 0.0953466C1.61818 0.0324051 1.45078 0 1.28171 0C1.11265 0 0.945252 0.0324051 0.789187 0.0953466C0.633122 0.158288 0.491475 0.25052 0.372418 0.366722C0.133886 0.599008 0 0.91323 0 1.24076C0 1.56829 0.133886 1.88251 0.372418 2.1148L5.6 6.50358L0.372418 10.8924C0.133886 11.1247 0 11.4389 0 11.7664C0 12.0939 0.133886 12.4082 0.372418 12.6404C0.492086 12.7554 0.634008 12.8463 0.790045 12.908C0.946082 12.9697 1.11317 13.0009 1.28171 13C1.45026 13.0009 1.61734 12.9697 1.77338 12.908C1.92942 12.8463 2.07134 12.7554 2.19101 12.6404L7.62117 7.38382C7.74121 7.26857 7.83649 7.13145 7.90151 6.98037C7.96652 6.82929 8 6.66725 8 6.50358C8 6.33992 7.96652 6.17787 7.90151 6.0268C7.83649 5.87572 7.74121 5.7386 7.62117 5.62335Z" fill="#ADA796"/>
</svg>
