<svg width="15" height="24" viewBox="0 0 15 24" fill="none" xmlns="http://www.w3.org/2000/svg">
<path d="M14.2897 10.3816L4.10814 0.677025C3.88491 0.462499 3.61932 0.292224 3.3267 0.176025C3.03408 0.0598248 2.72021 0 2.40321 0C2.08621 0 1.77235 0.0598248 1.47972 0.176025C1.1871 0.292224 0.921516 0.462499 0.698283 0.677025C0.251037 1.10586 0 1.68596 0 2.29063C0 2.8953 0.251037 3.47541 0.698283 3.90424L10.5 12.0066L0.698283 20.109C0.251037 20.5378 0 21.1179 0 21.7226C0 22.3273 0.251037 22.9074 0.698283 23.3362C0.922661 23.5483 1.18877 23.7162 1.48133 23.8301C1.7739 23.944 2.08718 24.0017 2.40321 24C2.71924 24.0017 3.03252 23.944 3.32509 23.8301C3.61766 23.7162 3.88376 23.5483 4.10814 23.3362L14.2897 13.6317C14.5148 13.4189 14.6934 13.1658 14.8153 12.8868C14.9372 12.6079 15 12.3088 15 12.0066C15 11.7045 14.9372 11.4053 14.8153 11.1264C14.6934 10.8475 14.5148 10.5943 14.2897 10.3816Z" fill="black"/>
</svg>
