<svg width="67" height="63" viewBox="0 0 67 63" fill="none" xmlns="http://www.w3.org/2000/svg">
<rect x="1.5" y="1.5" width="64" height="60" rx="7.5" fill="white" stroke="black" stroke-width="3"/>
<path d="M33.5 13C29.8411 13 26.2643 14.085 23.222 16.1178C20.1796 18.1506 17.8085 21.0399 16.4082 24.4204C15.008 27.8008 14.6417 31.5205 15.3555 35.1092C16.0693 38.6978 17.8313 41.9942 20.4185 44.5815C23.0058 47.1687 26.3022 48.9307 29.8908 49.6445C33.4795 50.3583 37.1992 49.992 40.5796 48.5918C43.9601 47.1915 46.8494 44.8203 48.8822 41.778C50.915 38.7357 52 35.1589 52 31.5C52 29.0705 51.5215 26.6649 50.5918 24.4204C49.6621 22.1758 48.2994 20.1364 46.5815 18.4185C44.8636 16.7006 42.8242 15.3379 40.5796 14.4082C38.3351 13.4785 35.9295 13 33.5 13ZM33.5 46.3C30.5728 46.3 27.7114 45.432 25.2776 43.8057C22.8437 42.1795 20.9468 39.8681 19.8266 37.1637C18.7064 34.4594 18.4133 31.4836 18.9844 28.6127C19.5554 25.7417 20.965 23.1046 23.0348 21.0348C25.1046 18.965 27.7418 17.5554 30.6127 16.9844C33.4836 16.4133 36.4594 16.7064 39.1637 17.8266C41.8681 18.9468 44.1795 20.8437 45.8057 23.2776C47.432 25.7114 48.3 28.5728 48.3 31.5C48.3 35.4252 46.7407 39.1896 43.9652 41.9652C41.1896 44.7407 37.4252 46.3 33.5 46.3ZM33.5 20.4C33.0094 20.4 32.5388 20.5949 32.1919 20.9419C31.8449 21.2888 31.65 21.7593 31.65 22.25V29.65H27.95C27.4594 29.65 26.9888 29.8449 26.6419 30.1918C26.2949 30.5388 26.1 31.0093 26.1 31.5C26.1 31.9906 26.2949 32.4612 26.6419 32.8081C26.9888 33.1551 27.4594 33.35 27.95 33.35H33.5C33.9907 33.35 34.4612 33.1551 34.8082 32.8081C35.1551 32.4612 35.35 31.9906 35.35 31.5V22.25C35.35 21.7593 35.1551 21.2888 34.8082 20.9419C34.4612 20.5949 33.9907 20.4 33.5 20.4Z" fill="black"/>
</svg>
